<?xml version="1.0" encoding="UTF-8" standalone="no"?>
<!-- Created with Inkscape (http://www.inkscape.org/) -->

<svg
   xmlns:dc="http://purl.org/dc/elements/1.1/"
   xmlns:cc="http://creativecommons.org/ns#"
   xmlns:rdf="http://www.w3.org/1999/02/22-rdf-syntax-ns#"
   xmlns:svg="http://www.w3.org/2000/svg"
   xmlns="http://www.w3.org/2000/svg"
   xmlns:sodipodi="http://sodipodi.sourceforge.net/DTD/sodipodi-0.dtd"
   xmlns:inkscape="http://www.inkscape.org/namespaces/inkscape"
   width="46.930271mm"
   height="36.592693mm"
   viewBox="0 0 46.930271 36.592693"
   version="1.1"
   id="svg1038"
   inkscape:version="0.92.3 (2405546, 2018-03-11)"
   sodipodi:docname="190711_Soleco.svg">
  <defs
     id="defs1032">
    <inkscape:path-effect
       effect="spiro"
       id="path-effect2238"
       is_visible="true" />
    <inkscape:path-effect
       effect="powerstroke"
       id="path-effect2240"
       is_visible="true"
       offset_points="5,0.13229166"
       sort_points="true"
       interpolator_type="CubicBezierJohan"
       interpolator_beta="0.2"
       start_linecap_type="zerowidth"
       linejoin_type="extrp_arc"
       miter_limit="4"
       end_linecap_type="zerowidth" />
    <clipPath
       id="clip16">
      <rect
         x="0"
         y="0"
         width="596"
         height="842"
         id="rect512" />
    </clipPath>
  </defs>
  <sodipodi:namedview
     id="base"
     pagecolor="#ffffff"
     bordercolor="#666666"
     borderopacity="1.0"
     inkscape:pageopacity="0.0"
     inkscape:pageshadow="2"
     inkscape:zoom="2.8126631"
     inkscape:cx="88.687127"
     inkscape:cy="69.151546"
     inkscape:document-units="mm"
     inkscape:current-layer="g1649"
     showgrid="false"
     fit-margin-top="0"
     fit-margin-left="0"
     fit-margin-right="0"
     fit-margin-bottom="0" />
  <metadata
     id="metadata1035">
    <rdf:RDF>
      <cc:Work
         rdf:about="">
        <dc:format>image/svg+xml</dc:format>
        <dc:type
           rdf:resource="http://purl.org/dc/dcmitype/StillImage" />
        <dc:title></dc:title>
      </cc:Work>
    </rdf:RDF>
  </metadata>
  <g
     inkscape:label="Calque 1"
     inkscape:groupmode="layer"
     id="layer1"
     transform="translate(277.46514,-9.5846051)">
    <g
       transform="matrix(0.35277777,0,0,0.35277777,-299.57638,-212.53782)"
       id="g984" />
    <g
       id="g1649"
       inkscape:export-xdpi="1623"
       inkscape:export-ydpi="1623">
      <g
         transform="matrix(0.3245934,0,0,0.15665252,-295.29495,-79.466771)"
         clip-path="url(#clip16)"
         id="g978"
         style="fill:#00ffff;fill-opacity:1;stroke:none;stroke-width:0.4587687;stroke-miterlimit:4;stroke-dasharray:none;stroke-opacity:1">
        <path
           inkscape:connector-curvature="0"
           id="path976"
           d="M 54.929688,679.67187 H 182.25391 v 1.75391 H 54.929688 Z m 0,0"
           style="fill:#599e28;fill-opacity:0.99215698;fill-rule:nonzero;stroke:none" />
      </g>
      <path
         inkscape:connector-curvature="0"
         id="path980"
         d="m 64.386536,676.95396 c 0.01559,-0.51822 -0.312117,0.44695 0.398609,-2.57599 0.213377,-0.17936 0.488522,-0.32568 0.600817,-0.32568 0.117872,0 0.151609,-0.19352 0.07862,-0.42478 -0.101054,-0.32096 -0.0058,-0.4248 0.370592,-0.4248 0.595212,0 1.184787,-0.52389 0.948957,-0.84013 -0.202151,-0.27848 0.393059,-1.78318 1.240934,-1.5141 0.353745,0.11322 0.645736,0.36817 0.645736,0.56166 0,0.19353 0.196531,-1.02801 0.432362,-0.88168 0.348138,0.21238 0.370591,0.32567 0.123477,0.57581 -0.263919,0.26432 -0.185304,0.33512 0.477281,0.4484 0.685038,0.11322 0.774879,0.20766 0.668191,0.67495 -0.09545,0.41534 -0.03364,-2.48555 0.24145,-2.57524 0.202151,-0.0661 0.482902,-0.11807 0.628891,-0.11807 0.14044,0 0.190908,-0.15103 0.10666,-0.33509 -0.258298,-0.5664 0.297597,-1.14694 1.100564,-1.14694 0.404287,0 0.808574,-0.1038 0.898415,-0.22654 0.08984,-0.12279 0.437966,-0.31152 0.774879,-0.42009 0.336898,-0.10851 0.718732,-0.43422 0.853494,-0.73157 0.129084,-0.29263 0.364972,-0.53333 0.516583,-0.53333 0.376213,0 1.010722,-0.55224 0.819813,-0.71743 -0.08984,-0.0708 0.06181,-0.12749 0.3369,-0.12749 0.583968,0 1.100565,0.3823 1.100565,0.81181 0,0.16991 0.196515,0.42479 0.43236,0.57111 0.342518,0.21239 0.370591,0.33039 0.129084,0.57109 -0.359366,0.36344 -0.162835,0.59 0.510976,0.59 0.387439,0 0.466054,0.12736 0.398665,0.68438 -0.06741,0.54749 0.01682,0.70326 0.421135,0.76461 0.780499,0.11807 1.005102,0.39647 0.623284,0.7835 -0.224604,0.22656 -0.252693,0.39175 -0.07862,0.48614 0.145989,0.0755 0.325672,0.28319 0.404286,0.45784 0.08423,0.17933 0.157215,-1.55758 0.168456,-3.85142 l 0.01682,-4.17236 4.289937,-0.0188 4.284318,-0.0189 v 1.36404 c 0,1.23188 0.04484,1.34987 0.482901,1.25548 0.263903,-0.0567 0.685038,-0.0141 0.943334,0.0944 0.645724,0.28319 1.094932,0.0991 1.106176,-0.44367 0.0055,-0.4295 0.03366,-0.43422 0.342512,-0.0897 0.185293,0.20295 0.578353,0.37287 0.875955,0.37287 0.297593,0 0.539041,0.0944 0.539041,0.20766 0,0.13221 1.050031,0.21239 2.650332,0.21239 h 2.644706 v 1.27438 c 0,1.21302 0.02802,1.26964 0.634499,1.26964 0.606427,0 0.628887,-0.0473 0.628887,-1.3782 0,-0.77406 0.11227,-1.37821 0.25268,-1.37821 0.14044,0 0.25269,-0.14159 0.25269,-0.31623 0,-0.1935 0.23583,-0.31623 0.61204,-0.31623 0.34251,0 0.69065,-0.0944 0.77488,-0.21239 0.20213,-0.27848 2.89736,-0.27848 2.89736,0 0,0.11808 0.54467,0.19352 1.23533,0.16519 1.1848,-0.0425 1.22409,-0.0661 1.01071,-0.54278 -0.29197,-0.65134 -0.28634,-0.70799 0.0898,-0.6655 0.76928,0.0802 0.9995,-0.033 0.87034,-0.44365 -0.16284,-0.51919 0.20776,-0.55695 0.56152,-0.052 0.23584,0.34927 0.25267,0.34927 0.26389,0.01 0.005,-0.23599 0.14046,-0.32567 0.38184,-0.24543 0.25269,0.0802 0.38183,-0.01 0.38744,-0.26903 0.0115,-0.36816 0.028,-0.36816 0.2976,0.0283 0.5559,0.80238 0.80295,0.9251 1.13425,0.55693 0.27514,-0.30679 0.31445,-0.29263 0.32007,0.10851 0.005,0.25016 0.17407,0.50976 0.37623,0.57583 0.29758,0.0944 0.3818,-0.19823 0.43795,-1.62363 0.0675,-1.48676 0.13469,-1.72748 0.49975,-1.68028 0.23023,0.033 0.49412,-0.0377 0.57835,-0.15575 0.21338,-0.29263 6.18782,-0.29735 6.18782,-0.01 0,0.11807 0.28076,0.21239 0.62889,0.21239 0.57836,0 0.6289,0.0755 0.6289,0.97702 0,0.84957 0.0618,0.95814 0.4436,0.82126 1.80243,-0.63247 1.65083,-0.64662 3.80141,0.39174 2.24604,1.0903 2.35834,1.12806 2.16181,0.6891 -0.10666,-0.23126 0.073,-0.2879 0.79173,-0.2407 0.84788,0.0567 1.48237,0.43893 1.25217,0.75517 -0.0506,0.0708 0.12347,0.24072 0.39306,0.38231 0.38744,0.20294 0.49412,0.20294 0.49972,-0.01 0.005,-0.14633 0.23024,-0.0426 0.50537,0.236 0.26952,0.27374 0.49412,0.39173 0.49412,0.26431 0,-0.13221 0.16846,-0.23601 0.37622,-0.23601 0.21337,0 0.38183,-0.1888 0.38183,-0.43894 0,-0.24072 -0.1011,-0.38231 -0.2246,-0.32094 -0.12349,0.0661 -0.51098,-0.0708 -0.85912,-0.30681 -0.35375,-0.23128 -0.84787,-0.36814 -1.10055,-0.3115 -0.2583,0.0614 -0.16845,-0.01 0.19654,-0.15577 0.36496,-0.1463 0.66818,-0.31623 0.6738,-0.37286 0.0115,-0.0614 0.12908,-0.36343 0.26952,-0.67494 0.19092,-0.42006 0.40429,-0.54751 0.83665,-0.50031 1.10617,0.11807 1.46555,0.35399 1.46555,0.96286 0,0.45782 0.14598,0.6183 0.66818,0.72685 0.51659,0.10851 0.60082,0.19823 0.37059,0.39647 -0.23582,0.19352 -0.35374,0.17935 -0.52781,-0.0567 -0.19093,-0.2643 -0.31444,-0.24543 -0.80857,0.1038 -0.32006,0.22657 -0.62888,0.43423 -0.68504,0.46257 -0.0506,0.0283 0.0336,0.17933 0.19091,0.33983 0.15722,0.16047 0.20777,0.35398 0.11787,0.42949 -0.0898,0.0755 -0.0898,0.14159 0,0.14159 0.0954,0 0.41552,-0.20766 0.71312,-0.45782 l 0.54466,-0.45783 -0.55589,0.12279 c -0.4492,0.0944 -0.50535,0.0661 -0.28075,-0.1605 0.16283,-0.16519 0.65696,-0.25959 1.20162,-0.22182 0.83665,0.0567 1.0781,0.20296 1.12301,0.68909 0.005,0.0944 0.23024,0.29265 0.48853,0.44839 0.41551,0.24073 0.57835,0.20767 1.24656,-0.26431 0.61204,-0.43422 0.87032,-0.50031 1.25777,-0.32567 0.44921,0.20296 0.4829,0.13692 0.4829,-0.85901 0,-1.20829 -0.10666,-1.14692 2.45941,-1.48675 l 1.83052,-0.24544 v -2.50625 h 8.54616 l 0.0786,0.79294 0.0786,8.04736 2.07759,0.0614 c 1.95404,0.0567 2.08319,0.033 2.08319,-0.37285 0,-0.32097 0.16284,-7.68395 0.62889,-7.68395 0.5559,0 0.6289,-0.0897 0.6289,-0.74102 0,-0.64663 0.0786,-0.74102 0.63448,-0.74102 0.34815,0 0.6289,-0.0944 0.6289,-0.21239 0,-0.11807 0.16846,-0.21239 0.37622,-0.21239 0.21338,0 0.38182,-0.1888 0.38182,-0.42481 0,-0.32566 0.16845,-0.42005 0.75804,-0.42005 0.77488,0 0.86472,-0.15103 0.76366,-1.22245 -0.0225,-0.25959 0.0786,-0.4767 0.2246,-0.4767 0.15161,0 0.26952,0.3823 0.26952,0.84957 0,0.80239 0.0448,0.84958 0.75804,0.84958 0.58959,0 0.75804,0.0944 0.75804,0.42007 0,0.23599 0.16847,0.42479 0.37621,0.42479 0.20775,0 0.37622,0.0944 0.37622,0.21239 0,0.11808 0.28636,0.21239 0.6345,0.21239 0.55027,0 0.62888,0.0944 0.62888,0.74102 0,0.51919 0.11227,0.74102 0.37622,0.74102 0.32006,0 0.38744,0.58053 0.42676,3.76645 0.028,2.06731 0.0898,3.17176 0.14043,2.44961 l 0.0898,-1.31212 1.43747,-0.3587 c 2.25166,-0.55695 3.30169,-0.58526 5.22204,-0.14161 1.42624,0.3304 1.78001,0.50031 1.84736,0.86845 0.0448,0.25016 0.24146,0.45311 0.43799,0.45311 0.28075,0 0.72317,11.55376 0.72317,10.4965 v 0 l 2.71415,0.0149 -0.29848,1.36377 H 64.380758 Z m 6.109221,-1.69444 c 0.174062,-0.23599 0.454828,-0.42478 0.617664,-0.42478 0.168456,0 0.409892,-0.15576 0.533428,-0.33983 0.185302,-0.27847 0.331292,-0.29735 0.752426,-0.10851 0.291977,0.1322 0.589589,0.23599 0.66819,0.23599 0.297598,0 0.129228,-0.59471 -0.23583,-0.84958 -0.207757,-0.14159 -0.376214,-0.472 -0.376214,-0.73157 0,-0.25961 -0.23021,-0.64664 -0.516581,-0.86376 -0.280765,-0.21239 -0.449207,-0.5239 -0.370606,-0.69381 0.09545,-0.20767 0.0115,-0.2596 -0.263905,-0.16992 -0.224603,0.0708 -0.47728,0.1322 -0.572743,0.1322 -0.08984,0 0,0.0991 0.207757,0.21712 0.331293,0.18408 0.325686,0.24544 -0.06181,0.49558 -0.24145,0.15577 -0.437981,0.38232 -0.437981,0.50031 0,0.11807 -0.168457,0.33039 -0.364987,0.46727 -0.202135,0.1416 -0.308824,0.37758 -0.24145,0.52863 0.07302,0.16047 -0.117872,0.33983 -0.454813,0.42007 l -0.578364,0.1463 0.561516,0.23128 c 0.42674,0.17464 0.527823,0.354 0.415514,0.73159 -0.185304,0.61828 0.28075,0.6655 0.718731,0.0755 z m 65.898703,-9.33116 c -0.0898,-0.11336 -0.29198,-0.20768 -0.46044,-0.20768 -0.17967,0.006 -0.14598,0.0849 0.0786,0.20768 0.4885,0.2643 0.57272,0.2643 0.38181,0 z m -0.63451,-1.90683 c 0.21338,-0.11322 0.55029,-0.19824 0.75804,-0.19353 0.25268,0.01 0.20777,0.0755 -0.12347,0.19353 -0.69626,0.25014 -1.09495,0.25014 -0.63452,0 z m -8.06889,-0.94869 c 0,-0.18881 0.14601,-0.25959 0.37622,-0.18881 0.20775,0.0661 0.31445,0.20768 0.23582,0.31152 -0.21898,0.30207 -0.61204,0.22183 -0.61204,-0.12278 z"
         style="fill:#f2f2f2;fill-opacity:1;fill-rule:nonzero;stroke:none;stroke-width:1.31790233"
         sodipodi:nodetypes="ccscsccscccccscscscscssccscccccccccsccccssscsssssscscccccccccccccccsssccccccccssscccccccscccccccscccccccccscccccccsssssssscsssssssssccccccsscccccccsccscscccsccscccccccccccccccccccccsc"
         transform="matrix(0.35277777,0,0,0.35277777,-299.57638,-212.53782)" />
      <path
         inkscape:connector-curvature="0"
         id="path982"
         d="m 175.47141,675.05441 c 0.0924,0 0.54636,-0.38282 1.00434,-0.85547 0.95611,-0.98828 1.23331,-1.07031 1.23331,-0.3711 0,0.26954 0.11249,0.49219 0.2531,0.49219 0.40575,0 0.28924,-2.1875 -0.16873,-3.12109 -0.22899,-0.47266 -0.61867,-0.98047 -0.85971,-1.12891 -0.24505,-0.14844 -0.38968,-0.40234 -0.32541,-0.5625 0.0643,-0.16406 -0.17675,-0.36719 -0.54233,-0.45703 -0.36156,-0.0898 -0.59055,-0.26953 -0.50619,-0.39844 0.24506,-0.39062 -0.54635,-0.27343 -0.89185,0.12891 -0.17274,0.20312 -0.21291,0.375 -0.0923,0.37891 0.12052,0.004 0.012,0.12109 -0.24104,0.26562 -0.44592,0.25391 -0.44592,0.27344 0,0.60156 0.42985,0.31641 0.41379,0.33985 -0.21693,0.34766 -0.51021,0.004 -0.69902,0.14453 -0.75928,0.5625 -0.0563,0.36719 -0.22899,0.52734 -0.52627,0.48047 -0.61867,-0.10156 -0.55841,0.5625 0.11248,1.17187 0.30533,0.27344 0.46602,0.5 0.35755,0.5 l 1.04852,1.72266 c 0.17676,0.19141 0.31737,0.76562 0.31737,1.28125 0,0.90625 -0.0281,0.93359 -0.88381,0.93359 -0.77936,0 -0.88783,-0.0742 -0.88783,-0.61328 0,-0.33984 -0.11249,-0.61719 -0.2531,-0.61719 -0.14061,0 -0.25309,-0.16406 -0.25309,-0.36718 0,-0.20313 -0.16872,-0.3711 -0.37763,-0.3711 -0.20889,0 -0.38164,-0.14843 -0.38164,-0.32812 0,-0.1836 -0.30933,-0.46875 -0.68696,-0.63281 -0.57448,-0.25782 -0.73116,-0.24219 -0.97621,0.082 -0.1607,0.21484 -0.36558,0.38672 -0.45397,0.38672 -0.26514,0 -0.18479,-1.4336 0.0924,-1.59766 0.13658,-0.0859 0.25308,-0.41797 0.25308,-0.74219 0,-0.32422 0.17275,-0.68359 0.38969,-0.80078 0.36156,-0.12891 0.62269,-0.39062 0.75927,-0.81641 0.11248,-0.17187 0.0924,-0.24218 -0.0482,-0.16015 -0.13257,0.082 -0.38566,-0.0781 -0.56242,-0.35547 -0.17677,-0.27734 -0.20489,-0.42969 -0.0563,-0.33984 0.37361,0.22265 1.28957,-0.30079 1.28957,-0.73438 0,-0.19922 -0.22899,-0.35937 -0.50619,-0.35937 -0.5343,0 -0.68294,-0.35938 -0.25308,-0.61719 0.44591,-0.26563 0.27317,-1.08203 -0.29327,-1.375 -0.462,-0.23828 -0.51824,-0.22266 -0.38969,0.11328 0.1366,0.33984 0.0803,0.35156 -0.3977,0.0898 -0.30533,-0.16797 -0.68296,-0.45703 -0.83561,-0.64843 -0.17677,-0.21094 -0.57849,-0.29688 -1.08067,-0.22657 -0.4419,0.0625 -0.79944,0.0234 -0.79944,-0.0898 0,-0.10938 0.16872,-0.20313 0.37763,-0.20313 0.20889,0 0.38164,-0.10937 0.38164,-0.24609 0,-0.54297 -1.88815,-0.0586 -1.92429,0.49219 0,0 -0.59055,0.40625 -0.83561,0.79297 -0.15266,0.23828 -0.28121,0.60156 -0.28121,0.80468 0,0.20704 -0.11248,0.375 -0.25309,0.375 -0.1366,0 -0.2531,0.21875 -0.2531,0.49219 0,0.32813 -0.16872,0.49219 -0.5102,0.49219 -0.47805,0 -0.4861,0.0352 -0.12453,0.57422 0.2089,0.3125 0.30933,0.64453 0.21292,0.73828 -0.15668,0.15234 0.52627,0.27344 1.03647,0.17969 0.12855,-0.0234 0.0964,0.11328 -0.0643,0.30468 -0.233,0.27344 -0.18881,0.48438 0.21291,0.98047 l 0.5102,0.63282 -1.41008,0.17187 c -1.63907,0.19922 -3.62764,-0.0156 -4.87301,-0.51953 -0.68295,-0.27734 -2.25774,-0.35547 -7.17495,-0.35547 -6.00992,0 -6.29515,0.0195 -6.29515,0.46484 0,0.64454 -0.4419,0.75782 -3.55132,0.9336 -2.69161,0.14844 -2.70366,0.14844 -2.86435,-0.44141 -0.24104,-0.8789 -0.20087,-1.69531 0.0843,-1.69531 0.14061,0 0.2531,-0.28906 0.2531,-0.64063 0,-0.39453 0.24906,-0.83203 0.64277,-1.13281 0.48609,-0.375 0.57447,-0.57031 0.36558,-0.8164 -0.20891,-0.2461 -0.1366,-0.36719 0.30933,-0.51563 0.31736,-0.10547 0.66286,-0.17187 0.76328,-0.14844 0.0964,0.0274 0.11652,-0.11718 0.0362,-0.32031 -0.0803,-0.19922 -0.0201,-0.36719 0.13658,-0.36719 0.15266,0 0.2772,-0.10937 0.2772,-0.24609 0,-0.13281 -0.0843,-0.23047 -0.18881,-0.21484 -0.50619,0.0781 -1.67121,-0.082 -1.39402,-0.19141 0.50217,-0.19922 0.38567,-1.50781 -0.15667,-1.78906 -0.25711,-0.13672 -0.53832,-0.17969 -0.62269,-0.10157 -0.0843,0.082 -0.45396,-0.043 -0.82355,-0.27734 -0.36558,-0.23437 -0.93604,-0.375 -1.26546,-0.3125 -0.39369,0.0703 -0.53832,0.0156 -0.42182,-0.16406 0.43388,-0.67188 0.26113,-0.80469 -0.72713,-0.54688 -0.69902,0.17969 -1.07664,0.45313 -1.2976,0.94141 -0.17275,0.37891 -0.40173,0.6875 -0.50618,0.6875 -0.10446,0 -0.18882,0.22266 -0.18882,0.49219 0,0.27343 -0.1165,0.49218 -0.25309,0.49218 -0.1406,0 -0.25309,0.17969 -0.25309,0.39454 0,0.21484 -0.22899,0.44921 -0.5102,0.51953 -0.54636,0.14062 -0.65884,0.44531 -0.25309,0.6875 0.14061,0.082 0.25309,0.36718 0.25309,0.6289 0,0.26563 0.17274,0.48047 0.38164,0.48047 0.20891,0 0.38165,0.21094 0.38165,0.46875 0,0.53125 1.34983,1.7461 1.94037,1.7461 0.71509,0 1.76361,0.78906 2.06089,1.55078 0.16069,0.41406 0.26113,0.78515 0.22096,0.82422 -0.0362,0.0351 -2.39835,0.082 -5.24664,0.0976 l -5.18235,0.0274 -0.0763,-2.28907 c -0.0442,-1.26172 -0.18078,-2.35547 -0.30531,-2.42968 -0.12454,-0.0742 -0.26113,-1.17969 -0.3013,-2.45704 -0.0683,-2.07812 -0.12856,-2.33203 -0.58252,-2.45312 -0.27719,-0.0742 -0.50617,-0.30078 -0.50617,-0.5 0,-0.23828 -1.2735,-0.92188 -3.52722,-1.89844 l -3.53123,-1.53125 -0.77534,0.44922 c -0.42584,0.25 -1.71138,0.97656 -2.86034,1.61328 -1.14896,0.64063 -2.08901,1.31641 -2.08901,1.50781 0,0.19141 -0.1165,0.34766 -0.25309,0.34766 -0.14865,0 -0.2531,0.85938 -0.2531,2.08594 0,2.08203 -0.004,2.08984 -0.77936,2.47656 l -0.77534,0.39063 0.0803,1.96875 c 0.0763,1.90625 0.0603,1.98046 -0.59858,2.37109 -0.6468,0.38281 -0.70304,0.37891 -1.14093,-0.12109 -0.34549,-0.39844 -0.87577,-0.56641 -2.16935,-0.69141 -1.62301,-0.16016 -1.70737,-0.14063 -1.70737,0.35547 0,0.68359 -0.78739,0.67969 -3.29019,-0.0234 -2.49476,-0.70312 -6.242923,-0.87109 -7.311532,-0.33594 -0.421819,0.21485 -1.052539,0.38672 -1.402047,0.38672 -0.34549,0 -0.911934,0.125 -1.253406,0.27344 -0.490114,0.21875 -0.875777,0.18359 -1.847971,-0.16406 -0.67491,-0.24219 -1.398029,-0.57813 -1.60693,-0.7461 -0.289248,-0.23828 -1.020401,-0.25781 -3.161637,-0.082 -4.724376,0.38281 -6.793299,0.66016 -7.946272,1.06641 -1.418116,0.5 -1.550688,0.49219 -1.550688,-0.10156 0,-0.63672 -0.690981,-0.64063 -1.381961,-0.008 -0.293264,0.26563 -0.923985,0.51563 -1.410081,0.55469 -0.839622,0.0664 -0.879795,0.0312 -0.891847,-0.76172 -0.008,-0.51562 -0.192832,-0.95703 -0.490113,-1.16797 -1.272561,-0.0255 -3.585589,2.55667 -3.800269,3.00681 -0.116502,0.42969 -1.214062,0.65055 -2.668335,0.65055 -1.638244,1.14244 -1.744512,2.04985 -1.745068,2.08218 0,0.32526 -0.0058,1.06124 -0.0058,1.06124 H 120.9924 c 31.4878,0.21094 54.39862,-0.0391 57.22279,-0.15625 v -0.98828 c 0,-0.54687 -0.0723,-1.05859 -0.15667,-1.14062 -0.20488,-0.19922 -0.83962,0.38281 -0.68294,0.6289 0.17274,0.27735 -1.16904,0.008 -1.56676,-0.3164 -0.25711,-0.20703 -0.40575,-0.16406 -0.60662,0.17187 -0.22497,0.37891 -0.26514,0.33203 -0.27318,-0.32422 -0.004,-0.33593 -0.0281,-0.67187 0.54234,-0.83593 z"
         style="fill:#e6e6e6;fill-opacity:1;fill-rule:nonzero;stroke:none;stroke-width:1.01411819"
         sodipodi:nodetypes="ccsscccccccccccccccsssssssccscscccccssccccccsssccssssccccccccssccsscccccsscccccccccssssccssssccccccccsccccsssccccccsccscccccsccccccccccsccccccc"
         transform="matrix(0.35277777,0,0,0.35277777,-299.57638,-212.53782)" />
      <path
         sodipodi:nodetypes="ccccc"
         style="fill:#599e28;fill-opacity:1;fill-rule:nonzero;stroke:none;stroke-width:0.35277775"
         d="m -233.67703,17.852266 c -4.57834,-3.110463 -3.85261,-3.235833 -5.94592,-8.2676609 4.10816,1.1570299 7.90198,3.2917869 6.26538,8.0882099 -0.78876,-1.718959 -2.00346,-4.153182 -4.41371,-5.821659 2.19008,1.768803 3.13434,4.021762 4.09425,6.00111 z"
         id="path986"
         inkscape:connector-curvature="0" />
      <path
         inkscape:original-d="m -273.53891,40.148626 c 7.86095,1.900121 15.76483,3.800507 23.64685,5.70116 7.88202,1.90065 10.91893,-6.226207 16.37799,-9.338914 5.45906,-3.112702 0.6135,-11.698421 0.91985,-17.547236"
         inkscape:path-effect="#path-effect2238;#path-effect2240"
         inkscape:connector-curvature="0"
         id="path988"
         d="m -273.53891,40.148626 c 4.79333,3.356258 13.27251,7.146035 23.64945,5.719896 2.97321,-0.403338 6.20884,-1.258259 9.23913,-2.887049 2.85945,-1.536967 5.40692,-3.712172 7.20527,-6.425194 1.81948,-2.743813 2.72431,-5.816564 2.88349,-8.688361 0.21409,-3.862348 -0.89872,-6.999625 -1.91514,-8.965052 0,0 -0.11751,0.06077 -0.11751,0.06077 0,0 -0.11751,0.06077 -0.11751,0.06077 1.00011,1.93387 2.11191,5.019957 1.92372,8.831642 -0.13996,2.834556 -1.01235,5.879276 -2.79506,8.609413 -1.76354,2.699662 -4.27705,4.87882 -7.1146,6.428639 -3.00717,1.64246 -6.22829,2.516908 -9.19699,2.93695 -10.36454,1.448029 -18.84867,-2.324587 -23.64425,-5.682424 z"
         style="fill:#599e27;fill-opacity:0.99274047;fill-rule:nonzero;stroke:none;stroke-width:0.26458332px;stroke-linecap:butt;stroke-linejoin:miter;stroke-opacity:1" />
      <path
         sodipodi:nodetypes="cccccccc"
         inkscape:connector-curvature="0"
         id="path990"
         d="m -266.3861,26.883768 0.28729,0.329851 -0.35113,0.159604 0.94699,1.213002 3.84115,-1.244925 0.80866,-0.515387 -1.213,-0.612486 z"
         style="fill:#ffffff;stroke:none;stroke-width:0.28050268px;stroke-linecap:butt;stroke-linejoin:miter;stroke-opacity:1" />
      <text
         id="text994"
         y="37.730015"
         x="-250.52699"
         style="font-style:normal;font-variant:normal;font-weight:normal;font-stretch:normal;font-size:18.43188477px;line-height:10;font-family:Lato;-inkscape-font-specification:'Lato, Normal';font-variant-ligatures:normal;font-variant-caps:normal;font-variant-numeric:normal;font-feature-settings:normal;text-align:start;letter-spacing:0px;word-spacing:0px;writing-mode:lr-tb;text-anchor:start;fill:#999999;fill-opacity:1;stroke:none;stroke-width:0.46079722"
         xml:space="preserve"
         transform="scale(1.0221487,0.97833123)"><tspan
           style="font-style:normal;font-variant:normal;font-weight:normal;font-stretch:normal;font-size:18.43188477px;font-family:Lato;-inkscape-font-specification:'Lato, Normal';font-variant-ligatures:normal;font-variant-caps:normal;font-variant-numeric:normal;font-feature-settings:normal;text-align:start;writing-mode:lr-tb;text-anchor:start;fill:#999999;fill-opacity:1;stroke-width:0.46079722"
           y="37.730015"
           x="-250.52699"
           id="tspan992"
           sodipodi:role="line">co</tspan></text>
      <g
         id="g1004"
         transform="matrix(0.35277777,0,0,0.35277777,-299.19412,-212.42003)"
         style="fill:#999999">
        <text
           id="text998"
           y="677.32635"
           x="64.179176"
           style="font-style:normal;font-variant:normal;font-weight:normal;font-stretch:normal;font-size:44.45230103px;line-height:10;font-family:Lato;-inkscape-font-specification:'Lato, Normal';font-variant-ligatures:normal;font-variant-caps:normal;font-variant-numeric:normal;font-feature-settings:normal;text-align:start;letter-spacing:0px;word-spacing:0px;writing-mode:lr-tb;text-anchor:start;fill:#999999;fill-opacity:1;stroke:none;stroke-width:1.11130762"
           xml:space="preserve"><tspan
             style="font-style:normal;font-variant:normal;font-weight:normal;font-stretch:normal;font-size:44.45230103px;font-family:Lato;-inkscape-font-specification:'Lato, Normal';font-variant-ligatures:normal;font-variant-caps:normal;font-variant-numeric:normal;font-feature-settings:normal;text-align:start;writing-mode:lr-tb;text-anchor:start;fill:#999999;fill-opacity:1;stroke-width:1.11130762"
             y="677.32635"
             x="64.179176"
             id="tspan996"
             sodipodi:role="line">S</tspan></text>
        <text
           xml:space="preserve"
           style="font-style:normal;font-variant:normal;font-weight:normal;font-stretch:normal;font-size:44.45230103px;line-height:10;font-family:Lato;-inkscape-font-specification:'Lato, Normal';font-variant-ligatures:normal;font-variant-caps:normal;font-variant-numeric:normal;font-feature-settings:normal;text-align:start;letter-spacing:0px;word-spacing:0px;writing-mode:lr-tb;text-anchor:start;fill:#999999;fill-opacity:1;stroke:none;stroke-width:1.11130762"
           x="113.2804"
           y="677.68195"
           id="text1002"><tspan
             sodipodi:role="line"
             id="tspan1000"
             x="113.2804"
             y="677.68195"
             style="font-style:normal;font-variant:normal;font-weight:normal;font-stretch:normal;font-size:44.45230103px;font-family:Lato;-inkscape-font-specification:'Lato, Normal';font-variant-ligatures:normal;font-variant-caps:normal;font-variant-numeric:normal;font-feature-settings:normal;text-align:start;writing-mode:lr-tb;text-anchor:start;fill:#999999;fill-opacity:1;stroke-width:1.11130762">l</tspan></text>
      </g>
      <path
         style="font-style:normal;font-variant:normal;font-weight:normal;font-stretch:normal;font-size:64.48000336px;line-height:10;font-family:Lato;-inkscape-font-specification:'Lato, Normal';font-variant-ligatures:normal;font-variant-caps:normal;font-variant-numeric:normal;font-feature-settings:normal;text-align:start;letter-spacing:0px;word-spacing:0px;writing-mode:lr-tb;text-anchor:start;fill:#896051;fill-opacity:1;stroke:none;stroke-width:2.14931917"
         d="M 53.251953 38.314453 C 44.024274 38.348469 37.37155 45.256652 37.316406 53.984375 C 37.457005 59.494786 41.172644 63.273257 44.242188 67.423828 C 42.365803 68.316696 40.64121 69.386693 39.068359 70.636719 C 37.495509 71.886745 36.129657 73.30149 34.970703 74.878906 C 33.839339 76.456319 32.941546 78.181598 32.279297 80.056641 C 31.644601 81.901919 31.328125 83.867798 31.328125 85.951172 C 31.328125 88.71909 31.838411 91.203821 32.859375 93.40625 C 33.880377 95.608675 35.217387 97.483598 36.873047 99.03125 C 38.556259 100.54914 40.4612 101.71007 42.585938 102.51367 C 43.323686 102.79269 44.068731 103.00541 44.816406 103.1875 C 44.938344 103.43471 45.077233 103.66542 45.251953 103.85547 C 47.147575 105.91737 54.826958 105.57781 57.785156 103.58203 C 58.255053 103.26501 58.572149 102.67875 58.767578 101.96875 C 59.257838 101.77707 59.742327 101.5748 60.21875 101.35156 C 63.612804 99.774169 66.60732 97.632215 69.201172 94.923828 C 69.201172 94.923828 71.014959 97.237424 75.160156 101.39648 C 79.305315 105.55556 85.390512 102.30366 77.458984 93.798828 L 73.462891 89.431641 C 75.284094 86.544683 76.678711 83.450135 77.644531 80.146484 C 78.610314 76.842845 79.1206 73.479335 79.175781 70.056641 C 76.931536 73.643295 75.587993 78.49522 69.927734 86.005859 L 54.476562 69.529297 C 62.149759 66.621536 68.693008 60.15394 68.236328 51.986328 L 68.277344 51.976562 C 67.600506 44.06798 60.884029 38.43536 53.251953 38.314453 z M 52.376953 44.501953 C 52.670793 44.49447 52.962607 44.50195 53.251953 44.521484 C 59.869037 44.968228 62.202414 50.933069 61.773438 54.810547 C 60.545771 60.801707 54.825217 62.461392 50.173828 64.214844 C 47.411938 61.099058 44.391863 57.973418 43.939453 53.941406 C 43.246666 47.766878 47.969351 44.614201 52.376953 44.501953 z M 47.634766 71.486328 L 65.144531 90.548828 C 63.268109 92.572667 61.102346 94.193793 58.646484 95.414062 C 58.352284 95.560244 58.053326 95.695508 57.75 95.824219 C 57.363111 95.39234 56.899639 95.157292 56.365234 95.251953 C 54.274513 95.622309 49.93766 95.072779 47.449219 95.388672 C 46.8367 95.466425 46.2967 95.834533 45.841797 96.369141 C 44.570467 95.839214 43.425985 95.110096 42.419922 94.164062 C 41.343739 93.152132 40.474749 91.917357 39.8125 90.458984 C 39.150213 88.970863 38.818359 87.260746 38.818359 85.326172 C 38.818359 82.528494 39.551184 79.952803 41.013672 77.601562 C 42.503751 75.220566 44.709789 73.182796 47.634766 71.486328 z "
         transform="matrix(0.26458333,0,0,0.26458333,-277.46514,9.5846051)"
         id="path1006" />
    </g>
  </g>
</svg>
